<mxfile host="app.diagrams.net" agent="Mozilla/5.0 (Windows NT 10.0; Win64; x64; rv:137.0) Gecko/20100101 Firefox/137.0" version="26.2.12" pages="3">
  <diagram name="Page-1" id="dfYz6_xtnhi5rpxcIDst">
    <mxGraphModel grid="1" page="1" gridSize="10" guides="1" tooltips="1" connect="1" arrows="1" fold="1" pageScale="1" pageWidth="850" pageHeight="1100" math="0" shadow="0">
      <root>
        <mxCell id="0" />
        <mxCell id="1" parent="0" />
        <mxCell id="t4hu7PfM-F24Ppe0Cmat-1" value="&lt;font style=&quot;font-size: 14px;&quot;&gt;&lt;b&gt;Job seeker&lt;/b&gt;&lt;/font&gt;" style="shape=umlActor;verticalLabelPosition=bottom;verticalAlign=top;html=1;outlineConnect=0;" vertex="1" parent="1">
          <mxGeometry x="90" y="-20" width="40" height="80" as="geometry" />
        </mxCell>
        <mxCell id="t4hu7PfM-F24Ppe0Cmat-21" value="Job Portal system" style="text;html=1;align=center;verticalAlign=middle;resizable=0;points=[];autosize=1;strokeColor=none;fillColor=none;" vertex="1" parent="1">
          <mxGeometry x="290" y="30" width="120" height="30" as="geometry" />
        </mxCell>
        <mxCell id="t4hu7PfM-F24Ppe0Cmat-20" value="" style="rounded=0;whiteSpace=wrap;html=1;" vertex="1" parent="1">
          <mxGeometry x="230" y="-110" width="280" height="400" as="geometry" />
        </mxCell>
        <mxCell id="t4hu7PfM-F24Ppe0Cmat-23" value="" style="ellipse;whiteSpace=wrap;html=1;" vertex="1" parent="1">
          <mxGeometry x="290" y="-90" width="120" height="40" as="geometry" />
        </mxCell>
        <mxCell id="t4hu7PfM-F24Ppe0Cmat-24" value="" style="ellipse;whiteSpace=wrap;html=1;" vertex="1" parent="1">
          <mxGeometry x="282.5" y="-40" width="135" height="40" as="geometry" />
        </mxCell>
        <mxCell id="t4hu7PfM-F24Ppe0Cmat-25" value="" style="ellipse;whiteSpace=wrap;html=1;" vertex="1" parent="1">
          <mxGeometry x="285" y="10" width="140" height="40" as="geometry" />
        </mxCell>
        <mxCell id="t4hu7PfM-F24Ppe0Cmat-29" value="&lt;font style=&quot;font-size: 14px;&quot;&gt;&lt;b&gt;Registration&lt;/b&gt;&lt;/font&gt;" style="text;html=1;align=center;verticalAlign=middle;whiteSpace=wrap;rounded=0;" vertex="1" parent="1">
          <mxGeometry x="320" y="-80" width="60" height="30" as="geometry" />
        </mxCell>
        <mxCell id="t4hu7PfM-F24Ppe0Cmat-30" value="&lt;font style=&quot;font-size: 14px;&quot;&gt;&lt;b&gt;Login&lt;/b&gt;&lt;/font&gt;" style="text;html=1;align=center;verticalAlign=middle;whiteSpace=wrap;rounded=0;" vertex="1" parent="1">
          <mxGeometry x="320" y="-35" width="60" height="30" as="geometry" />
        </mxCell>
        <mxCell id="t4hu7PfM-F24Ppe0Cmat-32" value="&lt;font style=&quot;font-size: 36px;&quot;&gt;Job Portal System&lt;/font&gt;" style="text;html=1;align=center;verticalAlign=middle;resizable=0;points=[];autosize=1;strokeColor=none;fillColor=none;" vertex="1" parent="1">
          <mxGeometry x="205" y="-205" width="320" height="60" as="geometry" />
        </mxCell>
        <mxCell id="273sXUc1JkLw10twYo9m-4" value="" style="endArrow=classic;html=1;rounded=0;entryX=0;entryY=0.5;entryDx=0;entryDy=0;" edge="1" parent="1">
          <mxGeometry width="50" height="50" relative="1" as="geometry">
            <mxPoint x="110" y="20" as="sourcePoint" />
            <mxPoint x="290" y="-75" as="targetPoint" />
          </mxGeometry>
        </mxCell>
        <mxCell id="273sXUc1JkLw10twYo9m-5" value="" style="endArrow=classic;html=1;rounded=0;exitX=0.5;exitY=0.5;exitDx=0;exitDy=0;exitPerimeter=0;" edge="1" parent="1" source="t4hu7PfM-F24Ppe0Cmat-1">
          <mxGeometry width="50" height="50" relative="1" as="geometry">
            <mxPoint x="112.5" as="sourcePoint" />
            <mxPoint x="282.5" y="-20" as="targetPoint" />
          </mxGeometry>
        </mxCell>
        <mxCell id="273sXUc1JkLw10twYo9m-6" value="&lt;font style=&quot;font-size: 14px;&quot;&gt;&lt;b&gt;Job search&lt;/b&gt;&lt;/font&gt;" style="text;html=1;align=center;verticalAlign=middle;whiteSpace=wrap;rounded=0;" vertex="1" parent="1">
          <mxGeometry x="320" y="15" width="60" height="30" as="geometry" />
        </mxCell>
        <mxCell id="273sXUc1JkLw10twYo9m-7" value="" style="ellipse;whiteSpace=wrap;html=1;" vertex="1" parent="1">
          <mxGeometry x="285" y="60" width="140" height="40" as="geometry" />
        </mxCell>
        <mxCell id="273sXUc1JkLw10twYo9m-8" value="" style="ellipse;whiteSpace=wrap;html=1;" vertex="1" parent="1">
          <mxGeometry x="290" y="110" width="140" height="40" as="geometry" />
        </mxCell>
        <mxCell id="273sXUc1JkLw10twYo9m-9" value="&lt;font style=&quot;font-size: 14px;&quot;&gt;&lt;b&gt;Job application&lt;/b&gt;&lt;/font&gt;" style="text;html=1;align=center;verticalAlign=middle;whiteSpace=wrap;rounded=0;" vertex="1" parent="1">
          <mxGeometry x="325" y="65" width="60" height="30" as="geometry" />
        </mxCell>
        <mxCell id="273sXUc1JkLw10twYo9m-10" value="&lt;font style=&quot;font-size: 14px;&quot;&gt;&lt;b&gt;Resume builder&lt;/b&gt;&lt;/font&gt;" style="text;html=1;align=center;verticalAlign=middle;whiteSpace=wrap;rounded=0;" vertex="1" parent="1">
          <mxGeometry x="330" y="115" width="60" height="30" as="geometry" />
        </mxCell>
        <mxCell id="273sXUc1JkLw10twYo9m-11" value="" style="ellipse;whiteSpace=wrap;html=1;" vertex="1" parent="1">
          <mxGeometry x="295" y="220" width="140" height="40" as="geometry" />
        </mxCell>
        <mxCell id="273sXUc1JkLw10twYo9m-12" value="" style="ellipse;whiteSpace=wrap;html=1;" vertex="1" parent="1">
          <mxGeometry x="295" y="170" width="140" height="40" as="geometry" />
        </mxCell>
        <mxCell id="273sXUc1JkLw10twYo9m-13" value="&lt;font style=&quot;font-size: 14px;&quot;&gt;&lt;b&gt;Instant messaging&lt;/b&gt;&lt;/font&gt;" style="text;html=1;align=center;verticalAlign=middle;whiteSpace=wrap;rounded=0;" vertex="1" parent="1">
          <mxGeometry x="330" y="175" width="60" height="30" as="geometry" />
        </mxCell>
        <mxCell id="273sXUc1JkLw10twYo9m-14" value="&lt;font style=&quot;font-size: 14px;&quot;&gt;&lt;b&gt;Interview scheduling&lt;/b&gt;&lt;/font&gt;" style="text;html=1;align=center;verticalAlign=middle;whiteSpace=wrap;rounded=0;" vertex="1" parent="1">
          <mxGeometry x="330" y="225" width="60" height="30" as="geometry" />
        </mxCell>
        <mxCell id="273sXUc1JkLw10twYo9m-15" value="" style="endArrow=classic;html=1;rounded=0;exitX=0.5;exitY=0.5;exitDx=0;exitDy=0;exitPerimeter=0;entryX=0;entryY=0.5;entryDx=0;entryDy=0;" edge="1" parent="1" source="t4hu7PfM-F24Ppe0Cmat-1" target="t4hu7PfM-F24Ppe0Cmat-25">
          <mxGeometry width="50" height="50" relative="1" as="geometry">
            <mxPoint x="160" y="90" as="sourcePoint" />
            <mxPoint x="210" y="40" as="targetPoint" />
          </mxGeometry>
        </mxCell>
        <mxCell id="273sXUc1JkLw10twYo9m-16" value="" style="endArrow=classic;html=1;rounded=0;entryX=0;entryY=0.5;entryDx=0;entryDy=0;" edge="1" parent="1" target="273sXUc1JkLw10twYo9m-7">
          <mxGeometry width="50" height="50" relative="1" as="geometry">
            <mxPoint x="110" y="20" as="sourcePoint" />
            <mxPoint x="210" y="50" as="targetPoint" />
          </mxGeometry>
        </mxCell>
        <mxCell id="273sXUc1JkLw10twYo9m-17" value="" style="endArrow=classic;html=1;rounded=0;exitX=0.5;exitY=0.5;exitDx=0;exitDy=0;exitPerimeter=0;" edge="1" parent="1" source="t4hu7PfM-F24Ppe0Cmat-1">
          <mxGeometry width="50" height="50" relative="1" as="geometry">
            <mxPoint x="150" y="140" as="sourcePoint" />
            <mxPoint x="290" y="130" as="targetPoint" />
          </mxGeometry>
        </mxCell>
        <mxCell id="273sXUc1JkLw10twYo9m-18" value="" style="endArrow=classic;html=1;rounded=0;exitX=0.5;exitY=0.5;exitDx=0;exitDy=0;exitPerimeter=0;entryX=0;entryY=0.5;entryDx=0;entryDy=0;" edge="1" parent="1" source="t4hu7PfM-F24Ppe0Cmat-1" target="273sXUc1JkLw10twYo9m-12">
          <mxGeometry width="50" height="50" relative="1" as="geometry">
            <mxPoint x="120" y="30" as="sourcePoint" />
            <mxPoint x="180" y="120" as="targetPoint" />
          </mxGeometry>
        </mxCell>
        <mxCell id="273sXUc1JkLw10twYo9m-19" value="" style="endArrow=classic;html=1;rounded=0;entryX=0;entryY=0.5;entryDx=0;entryDy=0;exitX=0.5;exitY=0.5;exitDx=0;exitDy=0;exitPerimeter=0;" edge="1" parent="1" source="t4hu7PfM-F24Ppe0Cmat-1" target="273sXUc1JkLw10twYo9m-11">
          <mxGeometry width="50" height="50" relative="1" as="geometry">
            <mxPoint x="120" y="30" as="sourcePoint" />
            <mxPoint x="190" y="125" as="targetPoint" />
          </mxGeometry>
        </mxCell>
      </root>
    </mxGraphModel>
  </diagram>
  <diagram id="jQeQUMfMaqE8hP19j-w_" name="Page-2">
    <mxGraphModel grid="1" page="1" gridSize="10" guides="1" tooltips="1" connect="1" arrows="1" fold="1" pageScale="1" pageWidth="850" pageHeight="1100" math="0" shadow="0">
      <root>
        <mxCell id="0" />
        <mxCell id="1" parent="0" />
        <mxCell id="7cWEpLP-1fG-6QIXvSTW-1" value="&lt;font style=&quot;font-size: 36px;&quot;&gt;Job Portal System&lt;/font&gt;" style="text;html=1;align=center;verticalAlign=middle;resizable=0;points=[];autosize=1;strokeColor=none;fillColor=none;" vertex="1" parent="1">
          <mxGeometry x="270" y="30" width="320" height="60" as="geometry" />
        </mxCell>
        <mxCell id="7cWEpLP-1fG-6QIXvSTW-2" value="" style="rounded=0;whiteSpace=wrap;html=1;" vertex="1" parent="1">
          <mxGeometry x="290" y="110" width="280" height="450" as="geometry" />
        </mxCell>
        <mxCell id="7cWEpLP-1fG-6QIXvSTW-3" value="&lt;font style=&quot;font-size: 14px;&quot;&gt;&lt;b&gt;Job Provider&lt;/b&gt;&lt;/font&gt;" style="shape=umlActor;verticalLabelPosition=bottom;verticalAlign=top;html=1;outlineConnect=0;" vertex="1" parent="1">
          <mxGeometry x="160" y="270" width="30" height="60" as="geometry" />
        </mxCell>
        <mxCell id="oTHLnnU823vwMnBwg017-1" value="" style="ellipse;whiteSpace=wrap;html=1;" vertex="1" parent="1">
          <mxGeometry x="330" y="130" width="160" height="50" as="geometry" />
        </mxCell>
        <mxCell id="oTHLnnU823vwMnBwg017-2" value="" style="ellipse;whiteSpace=wrap;html=1;" vertex="1" parent="1">
          <mxGeometry x="330" y="190" width="160" height="50" as="geometry" />
        </mxCell>
        <mxCell id="oTHLnnU823vwMnBwg017-3" value="" style="ellipse;whiteSpace=wrap;html=1;" vertex="1" parent="1">
          <mxGeometry x="330" y="250" width="160" height="50" as="geometry" />
        </mxCell>
        <mxCell id="oTHLnnU823vwMnBwg017-4" value="" style="ellipse;whiteSpace=wrap;html=1;" vertex="1" parent="1">
          <mxGeometry x="330" y="310" width="160" height="50" as="geometry" />
        </mxCell>
        <mxCell id="oTHLnnU823vwMnBwg017-5" value="" style="ellipse;whiteSpace=wrap;html=1;" vertex="1" parent="1">
          <mxGeometry x="330" y="370" width="160" height="50" as="geometry" />
        </mxCell>
        <mxCell id="oTHLnnU823vwMnBwg017-6" value="" style="ellipse;whiteSpace=wrap;html=1;" vertex="1" parent="1">
          <mxGeometry x="330" y="430" width="160" height="50" as="geometry" />
        </mxCell>
        <mxCell id="oTHLnnU823vwMnBwg017-7" value="&lt;font style=&quot;font-size: 14px;&quot;&gt;&lt;b&gt;Job vacancy&lt;/b&gt;&lt;/font&gt;" style="text;html=1;align=center;verticalAlign=middle;whiteSpace=wrap;rounded=0;" vertex="1" parent="1">
          <mxGeometry x="380" y="260" width="60" height="30" as="geometry" />
        </mxCell>
        <mxCell id="oTHLnnU823vwMnBwg017-8" value="&lt;font style=&quot;font-size: 14px;&quot;&gt;&lt;b&gt;Login&lt;/b&gt;&lt;/font&gt;" style="text;html=1;align=center;verticalAlign=middle;whiteSpace=wrap;rounded=0;" vertex="1" parent="1">
          <mxGeometry x="380" y="200" width="60" height="30" as="geometry" />
        </mxCell>
        <mxCell id="oTHLnnU823vwMnBwg017-9" value="&lt;font style=&quot;font-size: 14px;&quot;&gt;&lt;b&gt;Register&lt;/b&gt;&lt;/font&gt;" style="text;html=1;align=center;verticalAlign=middle;whiteSpace=wrap;rounded=0;" vertex="1" parent="1">
          <mxGeometry x="370" y="140" width="60" height="30" as="geometry" />
        </mxCell>
        <mxCell id="oTHLnnU823vwMnBwg017-10" value="&lt;font style=&quot;font-size: 14px;&quot;&gt;&lt;b&gt;Virtual interview&lt;/b&gt;&lt;/font&gt;" style="text;html=1;align=center;verticalAlign=middle;whiteSpace=wrap;rounded=0;" vertex="1" parent="1">
          <mxGeometry x="390" y="440" width="60" height="30" as="geometry" />
        </mxCell>
        <mxCell id="oTHLnnU823vwMnBwg017-11" value="&lt;font style=&quot;font-size: 14px;&quot;&gt;&lt;b&gt;Application track&lt;/b&gt;&lt;/font&gt;" style="text;html=1;align=center;verticalAlign=middle;whiteSpace=wrap;rounded=0;" vertex="1" parent="1">
          <mxGeometry x="380" y="380" width="60" height="30" as="geometry" />
        </mxCell>
        <mxCell id="oTHLnnU823vwMnBwg017-12" value="&lt;font style=&quot;font-size: 14px;&quot;&gt;&lt;b&gt;Resume filter&lt;/b&gt;&lt;/font&gt;" style="text;html=1;align=center;verticalAlign=middle;whiteSpace=wrap;rounded=0;" vertex="1" parent="1">
          <mxGeometry x="380" y="320" width="60" height="30" as="geometry" />
        </mxCell>
        <mxCell id="oTHLnnU823vwMnBwg017-13" value="" style="ellipse;whiteSpace=wrap;html=1;" vertex="1" parent="1">
          <mxGeometry x="330" y="500" width="160" height="50" as="geometry" />
        </mxCell>
        <mxCell id="oTHLnnU823vwMnBwg017-14" value="&lt;font style=&quot;font-size: 14px;&quot;&gt;&lt;b&gt;Short video of job&lt;/b&gt;&lt;/font&gt;" style="text;html=1;align=center;verticalAlign=middle;whiteSpace=wrap;rounded=0;" vertex="1" parent="1">
          <mxGeometry x="360" y="510" width="80" height="30" as="geometry" />
        </mxCell>
        <mxCell id="lQrFYlmpGnTztw142jMM-1" value="" style="endArrow=classic;html=1;rounded=0;exitX=0.5;exitY=0.5;exitDx=0;exitDy=0;exitPerimeter=0;entryX=0;entryY=0.5;entryDx=0;entryDy=0;" edge="1" parent="1" source="7cWEpLP-1fG-6QIXvSTW-3" target="oTHLnnU823vwMnBwg017-1">
          <mxGeometry width="50" height="50" relative="1" as="geometry">
            <mxPoint x="210" y="290" as="sourcePoint" />
            <mxPoint x="260" y="240" as="targetPoint" />
          </mxGeometry>
        </mxCell>
        <mxCell id="lQrFYlmpGnTztw142jMM-3" value="" style="endArrow=classic;html=1;rounded=0;exitX=0.5;exitY=0.5;exitDx=0;exitDy=0;exitPerimeter=0;entryX=0;entryY=0.5;entryDx=0;entryDy=0;" edge="1" parent="1" source="7cWEpLP-1fG-6QIXvSTW-3" target="oTHLnnU823vwMnBwg017-3">
          <mxGeometry width="50" height="50" relative="1" as="geometry">
            <mxPoint x="240" y="360" as="sourcePoint" />
            <mxPoint x="290" y="310" as="targetPoint" />
          </mxGeometry>
        </mxCell>
        <mxCell id="lQrFYlmpGnTztw142jMM-4" value="" style="endArrow=classic;html=1;rounded=0;exitX=0.5;exitY=0.5;exitDx=0;exitDy=0;exitPerimeter=0;entryX=0;entryY=0.5;entryDx=0;entryDy=0;" edge="1" parent="1" source="7cWEpLP-1fG-6QIXvSTW-3" target="oTHLnnU823vwMnBwg017-2">
          <mxGeometry width="50" height="50" relative="1" as="geometry">
            <mxPoint x="200" y="320" as="sourcePoint" />
            <mxPoint x="250" y="270" as="targetPoint" />
          </mxGeometry>
        </mxCell>
        <mxCell id="lQrFYlmpGnTztw142jMM-5" value="" style="endArrow=classic;html=1;rounded=0;entryX=0;entryY=0.5;entryDx=0;entryDy=0;exitX=0.5;exitY=0.5;exitDx=0;exitDy=0;exitPerimeter=0;" edge="1" parent="1" source="7cWEpLP-1fG-6QIXvSTW-3" target="oTHLnnU823vwMnBwg017-4">
          <mxGeometry width="50" height="50" relative="1" as="geometry">
            <mxPoint x="230" y="370" as="sourcePoint" />
            <mxPoint x="280" y="320" as="targetPoint" />
          </mxGeometry>
        </mxCell>
        <mxCell id="lQrFYlmpGnTztw142jMM-6" value="" style="endArrow=classic;html=1;rounded=0;exitX=0.5;exitY=0.5;exitDx=0;exitDy=0;exitPerimeter=0;entryX=0.088;entryY=0.788;entryDx=0;entryDy=0;entryPerimeter=0;" edge="1" parent="1" source="7cWEpLP-1fG-6QIXvSTW-3" target="oTHLnnU823vwMnBwg017-5">
          <mxGeometry width="50" height="50" relative="1" as="geometry">
            <mxPoint x="200" y="390" as="sourcePoint" />
            <mxPoint x="250" y="340" as="targetPoint" />
          </mxGeometry>
        </mxCell>
        <mxCell id="lQrFYlmpGnTztw142jMM-7" value="" style="endArrow=classic;html=1;rounded=0;entryX=0;entryY=0.5;entryDx=0;entryDy=0;exitX=0.5;exitY=0.5;exitDx=0;exitDy=0;exitPerimeter=0;" edge="1" parent="1" source="7cWEpLP-1fG-6QIXvSTW-3" target="oTHLnnU823vwMnBwg017-6">
          <mxGeometry width="50" height="50" relative="1" as="geometry">
            <mxPoint x="180" y="300" as="sourcePoint" />
            <mxPoint x="220" y="410" as="targetPoint" />
          </mxGeometry>
        </mxCell>
        <mxCell id="lQrFYlmpGnTztw142jMM-8" value="" style="endArrow=classic;html=1;rounded=0;entryX=0;entryY=0.5;entryDx=0;entryDy=0;exitX=0.5;exitY=0.5;exitDx=0;exitDy=0;exitPerimeter=0;" edge="1" parent="1" source="7cWEpLP-1fG-6QIXvSTW-3" target="oTHLnnU823vwMnBwg017-13">
          <mxGeometry width="50" height="50" relative="1" as="geometry">
            <mxPoint x="180" y="310" as="sourcePoint" />
            <mxPoint x="260" y="390" as="targetPoint" />
          </mxGeometry>
        </mxCell>
      </root>
    </mxGraphModel>
  </diagram>
  <diagram id="EwZPRqlyoMBEBbW7mfCs" name="Page-3">
    <mxGraphModel grid="1" page="1" gridSize="10" guides="1" tooltips="1" connect="1" arrows="1" fold="1" pageScale="1" pageWidth="850" pageHeight="1100" math="0" shadow="0">
      <root>
        <mxCell id="0" />
        <mxCell id="1" parent="0" />
        <mxCell id="9g4nU3QtCWG8q4K8XWJQ-1" value="&lt;font style=&quot;font-size: 36px;&quot;&gt;Job Portal System&lt;/font&gt;" style="text;html=1;align=center;verticalAlign=middle;resizable=0;points=[];autosize=1;strokeColor=none;fillColor=none;" vertex="1" parent="1">
          <mxGeometry x="215" y="40" width="320" height="60" as="geometry" />
        </mxCell>
        <mxCell id="eOT1xTj7477cuCd_nX-L-1" value="&lt;font style=&quot;font-size: 14px;&quot;&gt;&lt;b&gt;Platform Admin&lt;/b&gt;&lt;/font&gt;" style="shape=umlActor;verticalLabelPosition=bottom;verticalAlign=top;html=1;outlineConnect=0;" vertex="1" parent="1">
          <mxGeometry x="120" y="250" width="30" height="60" as="geometry" />
        </mxCell>
        <mxCell id="eOT1xTj7477cuCd_nX-L-2" value="" style="rounded=0;whiteSpace=wrap;html=1;" vertex="1" parent="1">
          <mxGeometry x="240" y="120" width="250" height="450" as="geometry" />
        </mxCell>
        <mxCell id="eOT1xTj7477cuCd_nX-L-3" value="" style="ellipse;whiteSpace=wrap;html=1;" vertex="1" parent="1">
          <mxGeometry x="280" y="130" width="170" height="50" as="geometry" />
        </mxCell>
        <mxCell id="eOT1xTj7477cuCd_nX-L-4" value="" style="ellipse;whiteSpace=wrap;html=1;" vertex="1" parent="1">
          <mxGeometry x="280" y="190" width="170" height="50" as="geometry" />
        </mxCell>
        <mxCell id="eOT1xTj7477cuCd_nX-L-5" value="" style="ellipse;whiteSpace=wrap;html=1;" vertex="1" parent="1">
          <mxGeometry x="280" y="250" width="170" height="50" as="geometry" />
        </mxCell>
        <mxCell id="eOT1xTj7477cuCd_nX-L-6" value="" style="ellipse;whiteSpace=wrap;html=1;" vertex="1" parent="1">
          <mxGeometry x="280" y="310" width="170" height="50" as="geometry" />
        </mxCell>
        <mxCell id="eOT1xTj7477cuCd_nX-L-7" value="" style="ellipse;whiteSpace=wrap;html=1;" vertex="1" parent="1">
          <mxGeometry x="290" y="440" width="170" height="50" as="geometry" />
        </mxCell>
        <mxCell id="eOT1xTj7477cuCd_nX-L-8" value="" style="ellipse;whiteSpace=wrap;html=1;" vertex="1" parent="1">
          <mxGeometry x="285" y="380" width="170" height="50" as="geometry" />
        </mxCell>
        <mxCell id="eOT1xTj7477cuCd_nX-L-9" value="" style="ellipse;whiteSpace=wrap;html=1;" vertex="1" parent="1">
          <mxGeometry x="290" y="500" width="170" height="50" as="geometry" />
        </mxCell>
        <mxCell id="eOT1xTj7477cuCd_nX-L-10" value="&lt;font style=&quot;font-size: 14px;&quot;&gt;&lt;b&gt;Users activity analytics&lt;/b&gt;&lt;/font&gt;" style="text;html=1;align=center;verticalAlign=middle;whiteSpace=wrap;rounded=0;" vertex="1" parent="1">
          <mxGeometry x="310" y="140" width="100" height="30" as="geometry" />
        </mxCell>
        <mxCell id="eOT1xTj7477cuCd_nX-L-11" value="&lt;font style=&quot;font-size: 14px;&quot;&gt;&lt;b&gt;Site performance report&lt;/b&gt;&lt;/font&gt;" style="text;html=1;align=center;verticalAlign=middle;whiteSpace=wrap;rounded=0;" vertex="1" parent="1">
          <mxGeometry x="320" y="200" width="100" height="30" as="geometry" />
        </mxCell>
        <mxCell id="eOT1xTj7477cuCd_nX-L-12" value="&lt;font style=&quot;font-size: 14px;&quot;&gt;&lt;b&gt;Authentication&lt;/b&gt;&lt;/font&gt;" style="text;html=1;align=center;verticalAlign=middle;whiteSpace=wrap;rounded=0;" vertex="1" parent="1">
          <mxGeometry x="340" y="260" width="60" height="30" as="geometry" />
        </mxCell>
        <mxCell id="eOT1xTj7477cuCd_nX-L-14" value="&lt;font style=&quot;font-size: 14px;&quot;&gt;&lt;b&gt;Skill enhancement&lt;/b&gt;&lt;/font&gt;" style="text;html=1;align=center;verticalAlign=middle;whiteSpace=wrap;rounded=0;" vertex="1" parent="1">
          <mxGeometry x="340" y="320" width="60" height="30" as="geometry" />
        </mxCell>
        <mxCell id="eOT1xTj7477cuCd_nX-L-15" value="&lt;font style=&quot;font-size: 14px;&quot;&gt;&lt;b&gt;Banner updating&lt;/b&gt;&lt;/font&gt;" style="text;html=1;align=center;verticalAlign=middle;whiteSpace=wrap;rounded=0;" vertex="1" parent="1">
          <mxGeometry x="345" y="390" width="60" height="30" as="geometry" />
        </mxCell>
        <mxCell id="eOT1xTj7477cuCd_nX-L-16" value="&lt;font style=&quot;font-size: 14px;&quot;&gt;&lt;b&gt;Premium users features&lt;/b&gt;&lt;/font&gt;" style="text;html=1;align=center;verticalAlign=middle;whiteSpace=wrap;rounded=0;" vertex="1" parent="1">
          <mxGeometry x="320" y="450" width="100" height="30" as="geometry" />
        </mxCell>
        <mxCell id="eOT1xTj7477cuCd_nX-L-17" value="&lt;font style=&quot;font-size: 14px;&quot;&gt;&lt;b&gt;Issue reporting&lt;/b&gt;&lt;/font&gt;" style="text;html=1;align=center;verticalAlign=middle;whiteSpace=wrap;rounded=0;" vertex="1" parent="1">
          <mxGeometry x="340" y="510" width="60" height="30" as="geometry" />
        </mxCell>
        <mxCell id="eOT1xTj7477cuCd_nX-L-18" value="" style="endArrow=classic;html=1;rounded=0;exitX=0.5;exitY=0.5;exitDx=0;exitDy=0;exitPerimeter=0;entryX=0.16;entryY=0.089;entryDx=0;entryDy=0;entryPerimeter=0;" edge="1" parent="1" source="eOT1xTj7477cuCd_nX-L-1" target="eOT1xTj7477cuCd_nX-L-2">
          <mxGeometry width="50" height="50" relative="1" as="geometry">
            <mxPoint x="180" y="280" as="sourcePoint" />
            <mxPoint x="230" y="230" as="targetPoint" />
          </mxGeometry>
        </mxCell>
        <mxCell id="eOT1xTj7477cuCd_nX-L-19" value="" style="endArrow=classic;html=1;rounded=0;entryX=0;entryY=0.5;entryDx=0;entryDy=0;" edge="1" parent="1" target="eOT1xTj7477cuCd_nX-L-4">
          <mxGeometry width="50" height="50" relative="1" as="geometry">
            <mxPoint x="140" y="280" as="sourcePoint" />
            <mxPoint x="200" y="260" as="targetPoint" />
          </mxGeometry>
        </mxCell>
        <mxCell id="eOT1xTj7477cuCd_nX-L-20" value="" style="endArrow=classic;html=1;rounded=0;exitX=0.5;exitY=0.5;exitDx=0;exitDy=0;exitPerimeter=0;entryX=0;entryY=0.5;entryDx=0;entryDy=0;" edge="1" parent="1" source="eOT1xTj7477cuCd_nX-L-1" target="eOT1xTj7477cuCd_nX-L-5">
          <mxGeometry width="50" height="50" relative="1" as="geometry">
            <mxPoint x="170" y="340" as="sourcePoint" />
            <mxPoint x="220" y="290" as="targetPoint" />
          </mxGeometry>
        </mxCell>
        <mxCell id="eOT1xTj7477cuCd_nX-L-22" value="" style="endArrow=classic;html=1;rounded=0;entryX=0;entryY=0.5;entryDx=0;entryDy=0;" edge="1" parent="1">
          <mxGeometry width="50" height="50" relative="1" as="geometry">
            <mxPoint x="140" y="282.5" as="sourcePoint" />
            <mxPoint x="285" y="407.5" as="targetPoint" />
          </mxGeometry>
        </mxCell>
        <mxCell id="eOT1xTj7477cuCd_nX-L-23" value="" style="endArrow=classic;html=1;rounded=0;entryX=0.056;entryY=0.672;entryDx=0;entryDy=0;entryPerimeter=0;exitX=0.5;exitY=0.5;exitDx=0;exitDy=0;exitPerimeter=0;" edge="1" parent="1" source="eOT1xTj7477cuCd_nX-L-1" target="eOT1xTj7477cuCd_nX-L-6">
          <mxGeometry width="50" height="50" relative="1" as="geometry">
            <mxPoint x="150" y="286" as="sourcePoint" />
            <mxPoint x="210" y="290" as="targetPoint" />
          </mxGeometry>
        </mxCell>
        <mxCell id="eOT1xTj7477cuCd_nX-L-24" value="" style="endArrow=classic;html=1;rounded=0;entryX=0;entryY=0.5;entryDx=0;entryDy=0;exitX=0.5;exitY=0.5;exitDx=0;exitDy=0;exitPerimeter=0;" edge="1" parent="1" source="eOT1xTj7477cuCd_nX-L-1" target="eOT1xTj7477cuCd_nX-L-7">
          <mxGeometry width="50" height="50" relative="1" as="geometry">
            <mxPoint x="140" y="290" as="sourcePoint" />
            <mxPoint x="220" y="390" as="targetPoint" />
          </mxGeometry>
        </mxCell>
        <mxCell id="eOT1xTj7477cuCd_nX-L-25" value="" style="endArrow=classic;html=1;rounded=0;entryX=0;entryY=0.5;entryDx=0;entryDy=0;exitX=0.5;exitY=0.5;exitDx=0;exitDy=0;exitPerimeter=0;" edge="1" parent="1" source="eOT1xTj7477cuCd_nX-L-1" target="eOT1xTj7477cuCd_nX-L-9">
          <mxGeometry width="50" height="50" relative="1" as="geometry">
            <mxPoint x="150" y="300" as="sourcePoint" />
            <mxPoint x="170" y="530" as="targetPoint" />
          </mxGeometry>
        </mxCell>
      </root>
    </mxGraphModel>
  </diagram>
</mxfile>
